<svg xmlns="http://www.w3.org/2000/svg" viewBox="0 0 128 128" width="128" height="128">
  <defs>
    <linearGradient id="bg" x1="0%" y1="0%" x2="0%" y2="100%">
      <stop offset="0%" stop-color="#223558"/>
      <stop offset="100%" stop-color="#1B2A4A"/>
    </linearGradient>
    <linearGradient id="shield" x1="0%" y1="15%" x2="100%" y2="85%">
      <stop offset="0%" stop-color="#12C9C2"/>
      <stop offset="100%" stop-color="#0A8C87"/>
    </linearGradient>
  </defs>
  <!-- Rounded square background -->
  <rect x="8" y="8" width="112" height="112" rx="24" fill="url(#bg)"/>
  <!-- Teal shield -->
  <path d="M64 20 L100 33 C100 33 104 35 104 41 L104 63 C104 82 87 98 64 110 C41 98 24 82 24 63 L24 41 C24 35 28 33 28 33 Z"
        fill="url(#shield)"/>
  <!-- White fence — vertical bars -->
  <line x1="50" y1="48" x2="50" y2="84" stroke="#fff" stroke-width="3.5" stroke-linecap="round"/>
  <line x1="64" y1="42" x2="64" y2="92" stroke="#fff" stroke-width="3.5" stroke-linecap="round"/>
  <line x1="78" y1="48" x2="78" y2="84" stroke="#fff" stroke-width="3.5" stroke-linecap="round"/>
  <!-- White fence — horizontal rails -->
  <line x1="40" y1="58" x2="88" y2="58" stroke="#fff" stroke-width="2.5" stroke-linecap="round"/>
  <line x1="41" y1="73" x2="87" y2="73" stroke="#fff" stroke-width="2.5" stroke-linecap="round"/>
</svg>
